<svg width="94" height="94" viewBox="0 0 94 94" fill="none" xmlns="http://www.w3.org/2000/svg">
<path d="M46.84 67.98C42.6089 67.98 39.1422 67.4467 36.44 66.38C33.7378 65.2778 31.7289 63.7667 30.4133 61.8467C29.0978 59.8911 28.4044 57.6689 28.3333 55.18H36.5467C36.6178 56.7444 37.0444 58.0778 37.8267 59.18C38.6444 60.2467 39.8356 61.0644 41.4 61.6333C42.9644 62.2022 44.8667 62.4867 47.1067 62.4867C50.2711 62.4867 52.6178 61.9889 54.1467 60.9933C55.7111 59.9978 56.4933 58.6111 56.4933 56.8333C56.4933 55.7311 56.28 54.8422 55.8533 54.1667C55.4267 53.4556 54.7689 52.9044 53.88 52.5133C52.9911 52.1222 51.8711 51.82 50.52 51.6067C49.2044 51.3578 47.64 51.1267 45.8267 50.9133C43.2311 50.5933 40.9022 50.1844 38.84 49.6867C36.8133 49.1889 35.0889 48.5311 33.6667 47.7133C32.28 46.8956 31.2133 45.8467 30.4667 44.5667C29.72 43.2511 29.3467 41.6333 29.3467 39.7133C29.3467 37.2244 30.04 35.1267 31.4267 33.42C32.8133 31.7133 34.7867 30.4156 37.3467 29.5267C39.9067 28.6022 42.9289 28.14 46.4133 28.14C49.7911 28.14 52.6889 28.6022 55.1067 29.5267C57.56 30.4511 59.4622 31.7844 60.8133 33.5267C62.2 35.2333 62.9822 37.3133 63.16 39.7667H55.2133C55.1067 38.3089 54.6622 37.1356 53.88 36.2467C53.0978 35.3578 52.0489 34.7 50.7333 34.2733C49.4178 33.8111 47.8711 33.58 46.0933 33.58C44.28 33.58 42.7156 33.7933 41.4 34.22C40.0844 34.6467 39.0889 35.2511 38.4133 36.0333C37.7378 36.8156 37.4 37.7578 37.4 38.86C37.4 40.1756 37.7556 41.1711 38.4667 41.8467C39.1778 42.5222 40.2978 43.0378 41.8267 43.3933C43.3911 43.7133 45.4178 44.0156 47.9067 44.3C50.5733 44.6556 52.9378 45.0644 55 45.5267C57.0978 45.9889 58.8578 46.6467 60.28 47.5C61.7022 48.3533 62.7689 49.4911 63.48 50.9133C64.2267 52.3 64.6 54.0778 64.6 56.2467C64.6 58.6644 63.9244 60.7622 62.5733 62.54C61.2222 64.2822 59.2311 65.6333 56.6 66.5933C53.9689 67.5178 50.7156 67.98 46.84 67.98Z" fill="#404C00"/>
<path d="M63.5 81.5H67V74.5H63.5V81.5ZM16 78H12.5V81.5H16V78ZM16 18V14.5H12.5V18H16ZM30.5 21.5C32.433 21.5 34 19.933 34 18C34 16.067 32.433 14.5 30.5 14.5V21.5ZM63.5 74.5H16V81.5H63.5V74.5ZM19.5 78V18H12.5V78H19.5ZM16 21.5H30.5V14.5H16V21.5Z" fill="#404C00"/>
<path d="M47 18H78V47" stroke="#404C00" stroke-width="7" stroke-linecap="round"/>
<path d="M60.5 34.5L75 20" stroke="#404C00" stroke-width="7" stroke-linecap="square"/>
</svg>
